<svg xmlns="http://www.w3.org/2000/svg" height="1200" width="1600" version="1.1" xmlns:xlink="http://www.w3.org/1999/xlink" xmlns:svgjs="http://svgjs.com/svgjs"><rect fill="#fafcff" width="1600" height="1200"></rect><g><path d="M807.88 564.43L807.69 553.69C802.41 555.2 797.89 555.39 792.61 555.39 775.09 555.39 760.39 547.85 752.09 534.66 741.54 517.69 746.06 498.47 750.59 479.81 750.96 478.12 751.34 476.42 751.72 474.72 753.22 466.43 754.36 458.14 754.92 449.85 756.81 428.93 759.26 402.92 770.19 388.03 787.34 365.04 809.01 380.68 845.38 380.68 848.21 380.68 860.08 378.42 862.91 378.61 904.75 380.87 926.99 391.42 925.67 431.57 924.91 455.69 933.39 489.61 929.63 548.98L928.12 567.26 878.74 584.41 807.88 564.43Z" fill="#f9b298" opacity="1" stroke-width="4" stroke="none"></path><path d="M878.18 519.58L877.8 519.2 878.18 519.01C878.55 518.83 918.51 494.89 911.16 472.84 908.14 463.61 900.41 459.08 888.35 459.08 879.87 459.46 872.33 460.4 863.48 463.98L863.1 464.17 862.91 463.04C860.27 450.04 862.34 441.18 866.11 431.38 866.68 430.06 865.55 428.55 864.04 428.74 861.21 428.93 858.39 429.12 855.56 429.31 838.22 429.31 831.44 422.9 828.8 417.62 825.97 412.16 826.54 405.18 829.93 398.4 830.68 396.89 829.18 395.01 827.48 395.57 812.59 400.09 799.59 402.54 788.84 402.54 771.32 402.54 765.47 396.51 765.47 396.51 766.61 393.87 768.68 390.48 770.37 388.22 787.53 365.23 817.11 352.6 853.49 352.6 856.31 352.6 859.14 352.6 861.97 352.79 903.81 355.05 936.98 389.35 935.66 429.49 935.28 451.54 932.83 492.06 929.44 548.79 929.44 548.6 899.09 542.01 878.18 519.58Z" fill="#000000" opacity="1" stroke-width="4" stroke="none"></path><path d="M807.69 553.69C816.55 550.49 828.04 545.4 836.15 540.5" stroke="#000000" stroke-width="4" stroke-linecap="round" stroke-linejoin="round" opacity="1" fill="none"></path><path d="M867.81 492.44L882.7 486.41" stroke="#000000" stroke-width="4" stroke-linecap="round" stroke-linejoin="round" opacity="1" fill="none"></path><path d="M790.35 468.51L789.22 472.65C788.47 475.1 789.22 477.55 791.11 479.25L791.48 479.62" stroke="#000000" stroke-width="4" stroke-linecap="round" stroke-linejoin="round" opacity="1" fill="none"></path><path d="M786.21 498.28C788.84 500.17 797.7 500.54 802.98 494.14" stroke="#000000" stroke-width="4" stroke-linecap="round" stroke-linejoin="round" opacity="1" fill="none"></path><path d="M815.98 465.3C818.7 465.3 820.88 463.12 820.88 460.4 820.88 457.71 818.7 455.5 815.98 455.5 813.27 455.5 811.08 457.71 811.08 460.4 811.08 463.12 813.27 465.3 815.98 465.3Z" fill="#000000" opacity="1" stroke-width="4" stroke="none"></path><path d="M773.96 459.08C776.67 459.08 778.86 456.9 778.86 454.18 778.86 451.49 776.67 449.28 773.96 449.28 771.24 449.28 769.06 451.49 769.06 454.18 769.06 456.9 771.24 459.08 773.96 459.08Z" fill="#000000" opacity="1" stroke-width="4" stroke="none"></path><path d="M511.05 674.31C508.04 666.01 506.15 661.68 503.7 655.46 499.74 646.04 494.47 633.22 480.9 597.04 474.68 584.6 468.84 573.86 463.56 564.43 452.82 545.02 446.41 533.34 449.99 529.57 450.93 528.63 452.06 528.06 453.57 528.06 458.85 528.06 461.67 531.08 474.68 544.64 476.56 546.72 482.03 552.37 485.42 555.76 485.8 556.14 486.36 555.76 486.17 555.2 484.1 550.68 480.33 542.76 478.64 539.18 471.29 523.73 464.5 509.78 469.4 499.6 470.72 496.96 473.17 495.08 476 494.51 476.19 486.03 480.14 480.94 486.74 480.94 489.75 481.13 492.58 481.89 495.22 483.21 497.48 481.7 500.12 480.94 502.76 480.94 518.4 480.94 534.61 507.33 548.93 530.51 555.72 541.44 561.94 551.81 567.21 557.08 567.78 530.7 572.87 515.06 580.78 515.06 581.72 515.06 582.48 515.24 583.23 515.62 589.26 517.88 592.47 533.9 596.05 552.56 596.8 556.52 597.74 560.66 598.5 564.81 600 572.16 601.32 578.57 602.45 584.22 606.22 601.37 608.67 612.87 606.79 628.32 612.82 643.59 618.66 659.42 623.94 673.18L624.88 675.81 511.05 674.31Z" fill="#f9b298" opacity="1" stroke-width="4" stroke="none"></path><path d="M567.21 557.08V575.18C567.21 575.18 547.8 594.96 551.19 622.86" stroke="#000000" stroke-width="4" stroke-linecap="round" stroke-linejoin="round" opacity="1" fill="none"></path><path d="M496.54 483.58C516.89 510.91 533.67 545.02 533.67 545.02" stroke="#000000" stroke-width="4" stroke-linecap="round" stroke-linejoin="round" opacity="1" fill="none"></path><path d="M476.19 494.51C485.23 505.82 513.31 555.95 513.31 555.95" stroke="#000000" stroke-width="4" stroke-linecap="round" stroke-linejoin="round" opacity="1" fill="none"></path><path d="M485.99 555.76L494.09 568.58" stroke="#000000" stroke-width="4" stroke-linecap="round" stroke-linejoin="round" opacity="1" fill="none"></path><path d="M808.63 566.88V553.31L812.21 552.37C821.83 549.54 828.23 546.72 837.47 542.57L838.03 543.7 826.35 574.99 808.63 566.88Z" fill="#000000" opacity="0.3" stroke-width="4" stroke="none"></path><path d="M997.47 894.43C971.84 894.43 942.44 891.04 909.27 883.5L908.14 881.8 910.78 845.24H781.31L759.63 765.33C755.67 771.36 725.52 813.96 675.01 832.62 661.82 837.89 647.69 840.53 633.55 840.91 564.01 840.91 532.54 757.04 508.79 668.46L610.94 639.63 639.02 707.1C641.47 703.71 656.17 683.73 681.99 651.31 730.61 586.29 802.04 579.89 807.88 579.51V564.43H928.49L927.74 575.93C968.26 581.96 1004.45 604.2 1028.38 637.37 1029.32 638.69 1129.58 772.87 1093.02 854.1 1081.9 879.73 1046.85 894.43 997.47 894.43Z" fill="#5aace2" opacity="1" stroke-width="4" stroke="none"></path><path d="M759.63 765.33L752.47 734.43" stroke="#666666" stroke-width="4" stroke-linecap="round" stroke-linejoin="round" opacity="1" fill="none"></path><path d="M737.58 790.78C737.58 790.59 742.67 775.51 742.67 745.73 742.67 728.4 742.67 717.09 748.7 717.09H749.08L760.57 764.58V764.77C754.17 774.19 746.63 783.05 738.52 791.15L737.58 790.78Z" fill="#666666" opacity="0.3" stroke-width="4" stroke="none"></path><path d="M955.26 747.05L972.78 790.78" stroke="#666666" stroke-width="4" stroke-linecap="round" stroke-linejoin="round" opacity="1" fill="none"></path><path d="M764.16 937.02C763.97 937.02 763.97 937.02 763.78 937.02 762.08 936.83 760.39 935.7 759.82 934.01 757.37 927.98 763.02 913.84 774.33 897.63 772.26 898.95 770.19 900.46 768.11 901.97 755.3 911.02 739.28 922.32 726.84 922.32 721.75 922.51 717.04 920.06 714.02 916.1 709.5 916.1 706.11 914.6 704.04 911.96 701.77 908.94 701.59 904.42 703.28 899.33 701.02 895.37 701.02 890.28 703.09 884.25 707.24 872.19 720.43 855.8 739.09 839.4 756.24 824.51 774.71 812.07 787.71 807.17 821.64 794.36 875.54 790.96 914.74 790.59H915.11L909.27 883.5C909.27 883.5 885.9 878.03 871.96 874.27 870.07 875.21 847.64 886.52 812.03 892.17 791.86 919.5 770.19 937.02 764.16 937.02Z" fill="#f9b298" opacity="1" stroke-width="4" stroke="none"></path><path d="M942.25 791.34L942.44 790.78C948.66 776.45 939.43 767.41 939.61 753.65 939.8 738.2 942.06 734.43 950.36 733.11L972.78 790.78 942.25 791.34Z" fill="#666666" opacity="0.3" stroke-width="4" stroke="none"></path><path d="M703.66 897.63C715.72 884.07 742.67 860.13 762.27 846.56" stroke="#000000" stroke-width="4" stroke-linecap="round" stroke-linejoin="round" opacity="1" fill="none"></path><path d="M714.21 915.54C723.26 906.49 753.22 881.05 777.35 864.47" stroke="#000000" stroke-width="4" stroke-linecap="round" stroke-linejoin="round" opacity="1" fill="none"></path><path d="M775.09 896.5L792.43 882.56" stroke="#000000" stroke-width="4" stroke-linecap="round" stroke-linejoin="round" opacity="1" fill="none"></path><path d="M639.39 708.04L637.51 730.66" stroke="#666666" stroke-width="4" stroke-linecap="round" stroke-linejoin="round" opacity="1" fill="none"></path><path d="M914.36 790.59C933.96 790.59 968.26 790.78 992.38 792.28" stroke="#666666" stroke-width="4" stroke-linecap="round" stroke-linejoin="round" opacity="1" fill="none"></path></g><g><path d="M855.37 849.69H612.6V862.1L648.53 874.69H837.78C847.6 874.69 855.37 866.54 855.37 856.91V849.69Z" fill="#ff674d" opacity="1" stroke-width="4" stroke="none"></path><path d="M344.65 675.43L561.12 675.43C580.01 675.43 599.27 690.62 604.27 709.51L648.53 874.5 382.79 874.69C371.68 874.69 362.05 867.28 359.28 856.54L319.83 709.32C314.83 690.62 325.94 675.43 344.65 675.43Z" fill="#ff674d" opacity="1" stroke-width="4" stroke="none"></path><path d="M460.05 793.36C449.88 784.47 447.16 770.97 453.98 763.19 460.77 755.41 474.51 756.32 484.68 765.21 494.85 774.1 497.57 787.6 490.75 795.38 483.96 803.15 470.22 802.25 460.05 793.36Z" fill="#ffc02e" opacity="1" stroke-width="4" stroke="none"></path><path d="M640.93 849.69H357.42" stroke="#58251c" stroke-width="4" stroke-linecap="round" stroke-linejoin="round" opacity="1" fill="none"></path></g><g><path d="M1134.07 212.25C1076.13 212.25 1029.13 259.24 1029.13 317.19V406.96C1029.13 415.4 1035.97 422.13 1044.3 422.13H1134.07C1192.02 422.13 1239.02 375.14 1239.02 317.19 1239.02 259.13 1192.02 212.25 1134.07 212.25Z" fill="#ffffff" opacity="1" stroke-width="4" stroke="none"></path></g><g><path d="M1302.75 841.49H1255.33C1251.06 841.49 1247.53 837.96 1247.53 833.69V798.98C1247.53 794.71 1251.06 791.18 1255.33 791.18H1302.75C1316.64 791.18 1327.85 802.51 1327.85 816.28 1327.85 830.17 1316.64 841.49 1302.75 841.49ZM1260.56 828.46H1302.64C1309.27 828.46 1314.61 823.01 1314.61 816.39 1314.61 809.77 1309.16 804.32 1302.54 804.32H1260.46L1260.56 828.46Z" fill="#5aace2" opacity="1" stroke-width="4" stroke="none"></path><path d="M1206.31 859.32L1182.81 757.22C1182.81 757.11 1182.92 757.11 1183.03 757.11 1185.48 760.96 1204.39 788.41 1241.02 788.41H1241.55C1264.84 788.41 1286.41 776.77 1299.01 757.11 1299.12 757.01 1299.23 757.11 1299.12 757.22L1275.73 859.32C1273.81 867.55 1266.55 873.31 1258.11 873.31H1223.83C1215.49 873.31 1208.23 867.44 1206.31 859.32Z" fill="#ffc02e" opacity="1" stroke-width="4" stroke="none"></path><path d="M1241.02 788.51C1202.57 788.51 1183.67 758.29 1182.71 756.79V756.69L1298.91 757.11C1298.91 757.11 1299.01 757.11 1298.91 757.22 1290.04 778.9 1265.05 788.51 1241.45 788.51 1241.55 788.51 1241.02 788.51 1241.02 788.51Z" fill="#5aace2" opacity="1" stroke-width="4" stroke="none"></path></g><g><path d="M1134.04 323.35L1079.28 288.11C1078.08 291.11 1077.44 294.27 1077.44 297.52L1077.32 336.2C1077.28 350.09 1088.5 361.37 1102.39 361.42L1165.48 361.6C1179.38 361.64 1190.66 350.42 1190.7 336.53L1190.83 297.85C1190.82 294.64 1190.23 291.42 1189.04 288.45L1134.04 323.35Z" fill="#ff674d" opacity="1" stroke-width="4" stroke="none"></path><path d="M1189.03 288.37C1185.51 278.78 1176 272.65 1165.72 272.62L1102.63 272.44C1092.39 272.42 1082.85 278.64 1079.3 288.07L1134.01 323.35 1184.08 291.55Z" fill="#ff674d" opacity="1" stroke-width="4" stroke="none"></path><path d="M1145 317.05L1188.64 346.28" stroke="#080808" stroke-width="4" stroke-linecap="round" stroke-linejoin="round" opacity="1" fill="none"></path><path d="M1123.15 317L1079.25 345.92" stroke="#080808" stroke-width="4" stroke-linecap="round" stroke-linejoin="round" opacity="1" fill="none"></path><path d="M1126.35 294.79L1141.88 294.84" stroke="#fdfdfd" stroke-width="4" stroke-linecap="round" opacity="1" fill="none"></path><path d="M1079.34 288.13L1134.06 323.43 1188.88 288.49" stroke="#080808" stroke-width="4" stroke-linecap="round" stroke-linejoin="round" opacity="1" fill="none"></path></g><g><path d="M1378.23 874.15H221.77V1011.22H1378.23V874.15Z" fill="#ddc8bb" opacity="1" stroke-width="4" stroke="none"></path></g></svg>